<?xml version="1.0" encoding="UTF-8"?>
<svg class="luxh-logo" viewBox="0 0 68 44" version="1.1" xmlns="http://www.w3.org/2000/svg" xmlns:xlink="http://www.w3.org/1999/xlink">
    <g id="UI---open-banking" stroke="none" stroke-width="1" fill="none" fill-rule="evenodd">
        <g id="00_launch-page_home_xl" transform="translate(-643.000000, -40.000000)">
            <g id="luxhub-logo" transform="translate(643.000000, 40.000000)">
                <g id="Layer_3">
                    <g id="Logo">
                        <path d="M16.329406,11.8980822 L26.3579465,22.060274 L16.329406,32.2116164 L6.30086556,22.060274 L16.329406,11.8980822 Z M16.329406,5.58980822 L0.0737917765,22.060274 L16.329406,38.5198904 L32.5850203,22.060274 L16.329406,5.58980822 Z" id="Shape" fill="#283252" fill-rule="nonzero"></path>
                        <path d="M50.535465,11.8980822 L60.5640055,22.060274 L50.535465,32.2116164 L40.5081147,22.060274 L50.535465,11.8980822 Z M50.535465,5.58980822 L34.2774704,22.060274 L50.535465,38.5198904 L66.7922694,22.060274 L50.535465,5.58980822 Z" id="Shape" fill="#283252" fill-rule="nonzero"></path>
                        <polygon id="Shape" points="19.0275666 14.6309041 16.329406 11.8968767 6.30086556 22.0542466 16.329406 32.2116164 19.0692233 29.4366027 11.7400336 22.0120548"></polygon>
                        <rect id="Rectangle-path" transform="translate(44.436335, 22.033379) rotate(-45.000000) translate(-44.436335, -22.033379) " x="41.6435539" y="19.2348581" width="5.58556141" height="5.5970411"></rect>
                        <rect id="Rectangle-path" transform="translate(22.415572, 22.034098) rotate(-45.000000) translate(-22.415572, -22.034098) " x="19.642429" y="19.195194" width="5.54628514" height="5.67780822"></rect>
                        <polygon id="Shape" points="25.5081509 14.8864658 32.5850203 22.0542466 25.5498075 29.1798356 33.4181532 37.1504658 41.3007812 29.1653699 34.2798508 22.0542466 41.3436281 14.9009315 33.4181532 6.87364384"></polygon>
                        <polygon id="Shape" points="50.5366552 11.8968767 47.8230221 14.6453699 55.0974631 22.0120548 47.7813655 29.4209315 50.5366552 32.2116164 60.5640055 22.0542466"></polygon>
                        <polygon id="Shape" fill="#FCB62D" fill-rule="nonzero" points="41.3007812 29.1653699 33.4181532 37.1504658 25.5498075 29.1798356 22.4362706 26.0263014 18.4729381 22.0120548 22.3934238 18.04 19.0275666 14.6309041 11.7400336 22.0120548 19.0692233 29.4366027 22.1839504 32.590137 33.4181532 43.9686575 44.6678286 32.5756712"></polygon>
                        <polygon id="Shape" fill="#39B54A" fill-rule="nonzero" points="47.8230221 14.6453699 44.7094852 11.4906301 33.4181532 0.0542465753 22.1411035 11.4761644 25.5081509 14.8864658 33.4181532 6.87364384 41.3436281 14.9009315 44.457165 18.0544658 48.3645585 22.0120548 44.4155083 26.0118356 47.7813655 29.4209315 55.0974631 22.0120548"></polygon>
                    </g>
                </g>
            </g>
        </g>
    </g>
</svg>