<?xml version="1.0" encoding="iso-8859-1"?>
<!-- Generator: Adobe Illustrator 19.0.0, SVG Export Plug-In . SVG Version: 6.00 Build 0)  -->
<svg xmlns="http://www.w3.org/2000/svg" xmlns:xlink="http://www.w3.org/1999/xlink" version="1.1" id="Layer_1" x="0px" y="0px" viewBox="0 0 512 512" style="enable-background:new 0 0 512 512;" xml:space="preserve" width="100" height="100">
<g>
	<g>
		<g>
			<rect x="50.65" y="108.516" style="fill:#345863;" width="27.554" height="58.714"/>
			<rect x="262.166" y="108.516" style="fill:#345863;" width="27.554" height="58.714"/>
		</g>
		<path style="fill:#FF9C43;" d="M300.16,122.204H37.78c-16.723,0-30.28-13.557-30.28-30.28v0c0-16.723,13.557-30.28,30.28-30.28    h262.38c16.723,0,30.28,13.557,30.28,30.28v0C330.439,108.648,316.882,122.204,300.16,122.204z"/>
		<path style="fill:#EF8229;" d="M300.16,61.645h-20.904v60.559h20.904c16.723,0,30.28-13.557,30.28-30.28v0    C330.439,75.202,316.882,61.645,300.16,61.645z"/>
	</g>
	<g>
		<g>
			<g>
				<path style="fill:#F43B45;" d="M495.773,317.805l-18.491-13.945c-1.995-1.504-3.718-3.338-5.095-5.423l-57.451-86.973      c-4.06-6.146-10.935-9.844-18.301-9.844h-93.383v198.796H493.48c6.086,0,11.02-4.934,11.02-11.02v-54.078      C504.5,328.433,501.269,321.949,495.773,317.805z"/>
				<path style="fill:#D82B2B;" d="M495.773,317.805l-18.491-13.945c-1.995-1.504-3.718-3.338-5.095-5.423l-57.451-86.973      c-4.06-6.146-10.934-9.844-18.301-9.844h-46.126l70.705,105.279c1.377,2.085,3.1,3.919,5.095,5.423l18.491,13.945      c5.496,4.145,8.727,10.628,8.727,17.512v54.078c0,0.882-0.115,1.736-0.311,2.559h40.463c6.086,0,11.02-4.934,11.02-11.02      v-54.078C504.5,328.433,501.269,321.949,495.773,317.805z"/>
				<g>
					<path style="fill:#EDEDED;" d="M12.427,167.335v220.844c0,6.758,5.478,12.236,12.236,12.236h300.849v-233.08       c0-6.758-5.478-12.236-12.236-12.236H24.663C17.906,155.1,12.427,160.578,12.427,167.335z"/>
				</g>
				<path style="fill:#75CFF2;" d="M432.025,290.14l-35.532-53.79c-2.389-3.617-6.434-5.792-10.768-5.792h-15.301      c-6.886,0-12.467,5.582-12.467,12.467v53.987c0,6.886,5.582,12.467,12.467,12.467h51.198      C431.556,309.479,437.5,298.428,432.025,290.14z"/>
				<g>
					<circle style="fill:#345863;" cx="407.129" cy="403.363" r="46.992"/>
					<path style="fill:#EDEDED;" d="M407.129,421.62c-10.067,0-18.257-8.19-18.257-18.257s8.19-18.257,18.257-18.257       s18.257,8.19,18.257,18.257S417.196,421.62,407.129,421.62z"/>
					<circle style="fill:#345863;" cx="109.092" cy="403.363" r="46.992"/>
					<path style="fill:#EDEDED;" d="M109.092,421.62c-10.067,0-18.257-8.19-18.257-18.257s8.19-18.257,18.257-18.257       s18.257,8.19,18.257,18.257S119.159,421.62,109.092,421.62z"/>
				</g>
				<path style="fill:#FFE471;" d="M472.54,339.524v8.512c0,12.43,10.077,22.507,22.507,22.507h9.453V335.28      c0-0.134-0.012-0.266-0.014-0.399h-27.304C474.618,334.881,472.54,336.96,472.54,339.524z"/>
			</g>
		</g>
	</g>
	<rect x="49.248" y="206.75" style="fill:#345863;" width="239.442" height="114.122"/>
	<rect x="237.518" y="206.75" style="fill:#1E4751;" width="51.173" height="114.122"/>
	<path style="fill:#F43B45;" d="M73.193,229.943L73.193,229.943c-13.224,0-23.944-10.72-23.944-23.944v-0.806   c0-5.087,4.124-9.211,9.211-9.211h38.677v10.018C97.137,219.223,86.417,229.943,73.193,229.943z"/>
	<path style="fill:#D82B2B;" d="M121.081,229.943L121.081,229.943c-13.224,0-23.944-10.72-23.944-23.944v-10.018h47.888v10.018   C145.025,219.223,134.305,229.943,121.081,229.943z"/>
	<path style="fill:#F43B45;" d="M168.97,229.943L168.97,229.943c-13.224,0-23.944-10.72-23.944-23.944v-10.018h47.888v10.018   C192.914,219.223,182.194,229.943,168.97,229.943z"/>
	<path style="fill:#D82B2B;" d="M216.858,229.943L216.858,229.943c-13.224,0-23.944-10.72-23.944-23.944v-10.018h47.888v10.018   C240.802,219.223,230.082,229.943,216.858,229.943z"/>
	<path style="fill:#F43B45;" d="M264.747,229.943L264.747,229.943c-13.224,0-23.944-10.72-23.944-23.944v-10.018h38.677   c5.087,0,9.211,4.124,9.211,9.211v0.806C288.691,219.223,277.971,229.943,264.747,229.943z"/>
	<path style="fill:#D6D6D6;" d="M294.632,337.997H43.307c-5.639,0-10.21-4.571-10.21-10.21v0c0-5.639,4.571-10.21,10.21-10.21   h251.324c5.639,0,10.21,4.571,10.21,10.21v0C304.842,333.426,300.271,337.997,294.632,337.997z"/>
	<path d="M294.632,345.497c9.766,0,17.71-7.945,17.71-17.71s-7.945-17.71-17.71-17.71H43.308c-9.766,0-17.71,7.945-17.71,17.71   s7.945,17.71,17.71,17.71H294.632z M40.597,327.787c0-1.495,1.216-2.71,2.71-2.71h251.324c1.495,0,2.71,1.216,2.71,2.71   s-1.216,2.71-2.71,2.71H43.308C41.813,330.497,40.597,329.281,40.597,327.787z"/>
	<path d="M49.249,295.351c4.142,0,7.5-3.358,7.5-7.5v-55.06c4.787,2.949,10.42,4.652,16.444,4.652   c9.58,0,18.172-4.306,23.944-11.085c5.772,6.778,14.365,11.085,23.944,11.085s18.172-4.306,23.944-11.085   c5.772,6.778,14.365,11.085,23.944,11.085c9.58,0,18.172-4.306,23.944-11.084c5.772,6.778,14.365,11.084,23.944,11.084   c9.58,0,18.172-4.306,23.944-11.085c5.772,6.778,14.365,11.085,23.944,11.085c6.024,0,11.657-1.703,16.444-4.652v55.06   c0,4.142,3.358,7.5,7.5,7.5s7.5-3.358,7.5-7.5v-81.1c0-0.083-0.002-0.165-0.004-0.247c0.003-0.168,0.004-0.337,0.004-0.505v-0.806   c0-9.215-7.497-16.711-16.711-16.711H58.459c-9.214,0-16.711,7.497-16.711,16.711v0.806c0,0.169,0.002,0.337,0.004,0.505   c-0.003,0.082-0.004,0.164-0.004,0.247v81.1C41.749,291.993,45.106,295.351,49.249,295.351z M281.191,205.192v0.806   c0,9.067-7.377,16.444-16.444,16.444s-16.444-7.377-16.444-16.444v-2.518h31.177C280.423,203.481,281.191,204.249,281.191,205.192z    M233.302,205.999c0,9.067-7.377,16.444-16.444,16.444s-16.444-7.377-16.444-16.444v-2.518h32.889V205.999z M185.414,205.999   c0,9.067-7.376,16.444-16.444,16.444s-16.444-7.377-16.444-16.444v-2.518h32.888V205.999z M137.525,205.999   c0,9.067-7.377,16.444-16.444,16.444s-16.444-7.377-16.444-16.444v-2.518h32.889V205.999z M56.749,205.192   c0-0.944,0.768-1.711,1.711-1.711h31.177v2.518c0,9.067-7.377,16.444-16.444,16.444s-16.444-7.377-16.444-16.444V205.192z"/>
	<path d="M407.128,377.605c-14.203,0-25.757,11.555-25.757,25.757s11.555,25.757,25.757,25.757s25.757-11.555,25.757-25.757   S421.331,377.605,407.128,377.605z M407.128,414.12c-5.932,0-10.757-4.826-10.757-10.757s4.826-10.757,10.757-10.757   s10.757,4.826,10.757,10.757S413.06,414.12,407.128,414.12z"/>
	<path d="M109.092,377.605c-14.203,0-25.757,11.555-25.757,25.757s11.555,25.757,25.757,25.757s25.757-11.555,25.757-25.757   S123.295,377.605,109.092,377.605z M109.092,414.12c-5.932,0-10.757-4.826-10.757-10.757s4.826-10.757,10.757-10.757   s10.757,4.826,10.757,10.757S115.024,414.12,109.092,414.12z"/>
	<path d="M438.283,286.006l-35.532-53.79c-3.788-5.735-10.153-9.159-17.026-9.159h-15.3c-11.01,0-19.967,8.958-19.967,19.967v53.987   c0,11.01,8.958,19.967,19.967,19.967h51.198c7.36,0,14.098-4.026,17.584-10.508C442.694,299.989,442.34,292.147,438.283,286.006   C438.283,286.006,438.283,286.006,438.283,286.006z M425.997,299.365c-0.423,0.786-1.695,2.614-4.375,2.614h-51.198   c-2.739,0-4.967-2.229-4.967-4.967v-53.987c0-2.739,2.229-4.967,4.967-4.967h15.3c1.821,0,3.507,0.907,4.511,2.426l35.531,53.79   C427.244,296.509,426.42,298.579,425.997,299.365z"/>
	<path d="M512,335.28c0-0.052-0.001-0.104-0.001-0.156c-0.061-9.114-4.428-17.815-11.71-23.307l-18.491-13.945   c-1.316-0.993-2.444-2.193-3.353-3.569l-57.451-86.974c-5.465-8.271-14.646-13.21-24.559-13.21h-63.423v-26.784   c0-10.882-8.854-19.736-19.736-19.736H297.22v-17.896h2.939c20.832,0,37.779-16.948,37.779-37.779   c0-20.832-16.948-37.78-37.779-37.78H37.78C16.948,54.145,0,71.093,0,91.925c0,20.832,16.948,37.779,37.78,37.779h5.37V147.6   H24.663c-10.882,0-19.736,8.854-19.736,19.736v220.844c0,10.882,8.854,19.736,19.736,19.736h30.125   c2.32,27.925,25.79,49.94,54.304,49.94s51.983-22.015,54.304-49.94h189.429c2.32,27.925,25.79,49.94,54.304,49.94   s51.983-22.015,54.304-49.94h32.047c10.212,0,18.521-8.308,18.521-18.521v-54.078c0-0.008,0-0.015,0-0.023   C512,335.289,512,335.284,512,335.28z M497,363.042h-1.954c-8.275,0-15.007-6.732-15.007-15.007v-5.654H497V363.042z M282.22,147.6   h-12.555v-17.896h12.555V147.6z M85.704,147.6v-17.896h168.961V147.6H85.704z M15,91.925c0-12.561,10.219-22.78,22.78-22.78h262.38   c12.561,0,22.779,10.219,22.779,22.78c0,12.561-10.219,22.779-22.779,22.779H37.78C25.219,114.704,15,104.485,15,91.925z    M58.15,129.704h12.554V147.6H58.15V129.704z M19.927,388.179V167.335c0-2.611,2.125-4.736,4.736-4.736h288.613   c2.611,0,4.736,2.125,4.736,4.736v225.58H162.579c-4.887-25.066-27.012-44.044-53.487-44.044s-48.6,18.978-53.487,44.044H24.663   C22.052,392.915,19.927,390.791,19.927,388.179z M109.092,442.855c-21.776,0-39.492-17.716-39.492-39.492   c0-0.716,0.02-1.427,0.057-2.134c0.024-0.223,0.038-0.45,0.042-0.679c1.447-20.468,18.562-36.68,39.392-36.68   c20.833,0,37.95,16.216,39.393,36.688c0.004,0.223,0.018,0.444,0.041,0.661c0.038,0.709,0.058,1.424,0.058,2.143   C148.584,425.139,130.868,442.855,109.092,442.855z M407.128,442.855c-21.776,0-39.492-17.716-39.492-39.492   c0-0.716,0.02-1.427,0.057-2.134c0.024-0.223,0.038-0.45,0.042-0.679c1.447-20.468,18.562-36.68,39.392-36.68   c20.833,0,37.95,16.216,39.393,36.688c0.004,0.223,0.018,0.444,0.041,0.661c0.038,0.709,0.058,1.424,0.058,2.143   C446.621,425.139,428.904,442.855,407.128,442.855z M493.479,392.915h-32.864c-4.887-25.066-27.012-44.044-53.487-44.044   s-48.6,18.978-53.487,44.044h-20.63V209.119h63.423c4.861,0,9.364,2.422,12.043,6.478l57.451,86.975   c1.854,2.805,4.153,5.252,6.836,7.276l18.491,13.945c1.328,1.002,2.458,2.221,3.356,3.588h-17.431   c-6.695,0-12.143,5.447-12.143,12.143v8.512c0,16.546,13.461,30.007,30.007,30.007H497v11.353   C497,391.336,495.421,392.915,493.479,392.915z"/>
</g>















</svg>
